<svg width="535" height="535" viewBox="0 0 535 535" fill="none" xmlns="http://www.w3.org/2000/svg">
<g clip-path="url(#clip0_2209_3)">
<path fill-rule="evenodd" clip-rule="evenodd" d="M210.303 180.227L79.9454 405.988L49.5101 354.396L84.6423 293.933L14.8702 293.75L1.44662e-05 267.971L15.1846 241.603L114.498 241.917L150.19 180.384L210.303 180.227Z" fill="#98C379"/>
<path fill-rule="evenodd" clip-rule="evenodd" d="M220.304 360.697L480.997 360.71L451.535 412.863L381.606 412.67L416.333 473.186L401.443 498.953L371.016 498.987L321.631 412.822L250.495 412.678L220.304 360.697Z" fill="#98C379"/>
<path fill-rule="evenodd" clip-rule="evenodd" d="M372.036 261.774L241.701 36.0009L301.598 35.439L336.394 96.0959L371.439 35.7632L401.2 35.7749L416.443 62.1089L366.514 147.96L401.957 209.637L372.036 261.774Z" fill="#98C379"/>
<path fill-rule="evenodd" clip-rule="evenodd" d="M163.26 273.226L293.595 498.999L233.698 499.561L198.902 438.904L163.857 499.237L134.096 499.225L118.853 472.891L168.782 387.04L133.339 325.363L163.26 273.226Z" fill="#606E4E"/>
<path fill-rule="evenodd" clip-rule="evenodd" d="M314.454 173.785L53.7609 173.772L83.223 121.618L153.152 121.812L118.424 61.296L133.315 35.5283L163.742 35.4947L213.127 121.659L284.262 121.804L314.454 173.785Z" fill="#606E4E"/>
<path fill-rule="evenodd" clip-rule="evenodd" d="M324.697 354.738L455.055 128.977L485.49 180.569L450.358 241.032L520.13 241.215L535 266.995L519.815 293.362L420.502 293.049L384.81 354.582L324.697 354.738Z" fill="#606E4E"/>
</g>

</svg>
