<svg width="29" height="29" viewBox="0 0 29 29" fill="none" xmlns="http://www.w3.org/2000/svg">
<g clip-path="url(#clip0_3_2)">
<path d="M9.42908 17L10.048 17.7913C8.4231 15.9011 7.44483 13.4471 7.44483 10.7776C7.44483 4.82504 12.2699 0 18.2224 0C24.175 0 29 4.82504 29 10.7776C29 16.7301 24.175 21.5552 18.2224 21.5552C15.5529 21.5552 13.0989 20.5769 11.2087 18.952L11.9013 19.5L10.761 20.7261L2.47055 29L0 26.5294L9.42908 17ZM18.2224 18.239C22.3511 18.239 25.6838 14.9062 25.6838 10.7776C25.6838 6.64894 22.3511 3.31618 18.2224 3.31618C14.0938 3.31618 10.761 6.64894 10.761 10.7776C10.761 14.9062 14.0938 18.239 18.2224 18.239Z" fill="#606E4E"/>
</g>
<defs>
<clipPath id="clip0_3_2">
<rect width="29" height="29" fill="white"/>
</clipPath>
</defs>
</svg>
